<?xml version="1.0" encoding="utf-8"?>
<!-- Generator: Adobe Illustrator 27.5.0, SVG Export Plug-In . SVG Version: 6.00 Build 0)  -->
<svg version="1.1" xmlns="http://www.w3.org/2000/svg" xmlns:xlink="http://www.w3.org/1999/xlink" x="0px" y="0px"
	 viewBox="0 0 1100 800" style="enable-background:new 0 0 1100 800;" xml:space="preserve">
<g id="background">
	<rect x="0" y="0" style="fill:#B5D6CA;" width="1100" height="800"/>
</g>
<g id="shadow">
	<g id="XMLID_987_" style="opacity:0.2;">
		<path style="fill:#F7F7F7;" d="M895.055,552.319c36.626,2.102,73.38-1.161,109.943,2.704c17.983,1.901,36.501,5.177,52.607,12.971
			c5.942,2.875,16.265,7.358,17.618,13.876c1.452,6.998-6.259,9.478-6.891,15.767c-0.427,4.255,5.222,10.3,5.806,15.165
			c1.23,10.242-4.447,19.513-10.961,27.466c-12.216,14.914-4.584,27.52-10.452,45.929c-2.182,6.846-2.724,14.462-5.764,20.817
			c-16.973,35.487-235.086,32.685-291.271,33.071c-127.454,0.875-254.911-0.586-382.338-2.854
			c-37.922-0.675-75.868-1.806-113.811-2.609c-22.204-0.47-44.406-0.828-66.602-0.916c-33.31-0.133-71.65,7.129-103.146-9.48
			c-55.024-29.016,15.775-57.311,1.966-89.503c-0.004-0.01-0.009-0.02-0.013-0.03c-6.106-14.195-31.303-15.899-42.519-19.444
			c-5.171-1.634-10.637-3.48-14.257-8.211c-19.22-25.119,21.937-51.813,37.522-55.339c31.629-7.156,66.067-3.682,98.105-4.224
			C412.312,543.383,654.678,538.523,895.055,552.319z"/>
	</g>
</g>
<g id="object">
	<g>
		<g>
			<g id="XMLID_984_">
				<g id="XMLID_986_">
					<polygon style="fill:#474747;" points="780.527,340.94 778.586,410.627 761.412,528.133 748.207,528.133 739.866,419.709 
						724.233,327.352 					"/>
				</g>
				<g id="XMLID_985_">
					<polygon style="fill:#426362;" points="748.283,533.702 762.563,540.842 769.703,533.702 762.563,526.562 748.283,526.562 
											"/>
				</g>
			</g>
			<g id="XMLID_981_">
				<g id="XMLID_983_">
					<polygon style="fill:#474747;" points="692.959,325.962 692.699,378.687 709.079,534.604 722.284,534.604 736.902,431.076 
						748.695,317.755 					"/>
				</g>
				<g id="XMLID_982_">
					<polygon style="fill:#426362;" points="722.208,540.172 707.928,547.313 700.788,540.172 707.928,533.032 722.208,533.032 
											"/>
				</g>
			</g>
			<g id="XMLID_980_">
				<path style="fill:#3ABABA;" d="M760.468,168.822l-44.277-4.901c0,0-19.776,2.939-35.311,57.313
					c-15.536,54.374-11.647,165-11.647,165s111.82-15.96,129.412-19.412l-12.294-100.294L760.468,168.822z"/>
			</g>
			<g id="XMLID_977_">
				<g id="XMLID_979_">
					<polygon style="fill:#B97262;" points="682.683,74.91 689.024,60.576 694.547,62.762 692.123,73.448 695.278,73.113 
						688.534,84.781 682.444,83.384 					"/>
				</g>
				<g id="XMLID_978_">
					<polygon style="fill:#3ABABA;" points="717.672,164.085 678.688,150.323 691.971,81.558 679.706,79.474 641.48,159.092 
						699.666,205.934 					"/>
				</g>
			</g>
			<g id="XMLID_974_">
				<g id="XMLID_976_">
					<path style="fill:#B97262;" d="M754.666,117.29c-10.086-3.333-20.498-6.461-31.039-5.475c-2.309,0.216-4.818,0.754-6.246,2.581
						c-0.553,0.708-0.894,1.555-1.215,2.394c-3.601,9.423-8.381,23.449-2.918,33.031c1.042,1.827,2.537,3.346,4.18,4.624
						c2.197,1.708,4.693,2.972,7.326,3.778c-0.803,2.352-1.819,4.632-3.033,6.801c5.12,0.718,10.241,1.437,15.361,2.156
						c0.417-2.943,0.834-5.887,1.252-8.83c1.397-0.404,2.761-0.93,4.06-1.607c5.028-2.619,8.614-7.008,10.957-12.09
						c2.551-5.533,5.871-10.701,8.264-16.362c0.872-2.062,1.636-4.44,0.713-6.479c-0.982-2.172-3.485-3.133-5.746-3.886
						C755.946,117.714,755.307,117.502,754.666,117.29z"/>
				</g>
				<g id="XMLID_975_">
					<path style="fill:#1A3151;" d="M719.75,119.308c5.437-2.757,13.234-3.384,17.994-2.545
						c14.392,2.538,18.612,13.731,18.018,27.141c4.515-4.667,12.666-10.284,13.789-16.771c0.919-5.309,0.927-12.677-1.595-17.602
						c-2.36-4.608-9.284-7.717-13.29-10.658c-3.776-2.772-7.552-5.545-11.328-8.317c-0.785-0.577-1.593-1.164-2.531-1.428
						c-1.109-0.312-2.29-0.141-3.429,0.032c-9.749,1.48-19.497,2.961-29.246,4.441c-1.873,0.284-4.022,0.76-4.875,2.451
						c-0.518,1.029-0.401,2.25-0.271,3.395c0.572,5.041,2.126,10.292,2.126,15.339c0.282,2.961,0.487,18.01,5.801,16.821
						c1.762-2.312,2.299-5.327,3.745-7.848C715.727,121.894,717.544,120.426,719.75,119.308z"/>
				</g>
			</g>
		</g>
		<g>
			<g>
				<rect x="143.651" y="193.354" style="fill:#FFFFFF;" width="557.289" height="357.34"/>
			</g>
			<g>
				<rect x="143.651" y="165.501" style="fill:#145566;" width="557.289" height="21.44"/>
			</g>
			<g>
				<rect x="143.651" y="186.941" style="fill:#9EA6AD;" width="557.289" height="28.145"/>
			</g>
			<g style="opacity:0.36;">
				<rect x="201.353" y="197.27" style="fill:#F7F7F7;" width="473.94" height="12.015"/>
			</g>
			<g>
				<g>
					<path style="fill:#EBB044;" d="M166.978,175.332c0,1.948-1.579,3.527-3.527,3.527c-1.948,0-3.527-1.579-3.527-3.527
						c0-1.948,1.579-3.527,3.527-3.527C165.399,171.805,166.978,173.384,166.978,175.332z"/>
				</g>
				<g>
					<path style="fill:#EBB044;" d="M177.307,175.332c0,1.948-1.579,3.527-3.527,3.527c-1.948,0-3.527-1.579-3.527-3.527
						c0-1.948,1.579-3.527,3.527-3.527C175.728,171.805,177.307,173.384,177.307,175.332z"/>
				</g>
				<g>
					<path style="fill:#EBB044;" d="M187.636,175.332c0,1.948-1.579,3.527-3.527,3.527c-1.948,0-3.527-1.579-3.527-3.527
						c0-1.948,1.579-3.527,3.527-3.527C186.057,171.805,187.636,173.384,187.636,175.332z"/>
				</g>
			</g>
			<g style="opacity:0.36;">
				<g>
					<polygon style="fill:#F4F8FD;" points="182.101,197.513 182.101,209.042 186.205,203.277 					"/>
				</g>
				<g>
					<polygon style="fill:#F4F8FD;" points="165.459,209.042 165.459,197.513 161.355,203.277 					"/>
				</g>
			</g>
		</g>
		<g id="XMLID_962_">
			<g id="XMLID_971_">
				<g id="XMLID_973_">
					<path style="fill:#B97262;" d="M840.512,342.818l-7.205-3.748l-7.021,1.949l-1.189-1.166l1.501-1.427
						c-4.903,0.494-10.75-2.073-12.071-7.204c-0.522-2.028-0.205-6.524,1.913-7.744c2.343-1.349,8.942,1.427,11.737,1.856
						l6.211,4.765l10.106,4.733L840.512,342.818z"/>
				</g>
				<g id="XMLID_972_">
					<polygon style="fill:#145566;" points="837.32,330.069 904.762,343.31 931.656,314.674 954.171,326.629 924.849,378.417 
						829.418,342.915 					"/>
				</g>
			</g>
			<g id="XMLID_968_">
				<g id="XMLID_970_">
					<polygon style="fill:#145566;" points="999.914,655.436 1000.89,662.931 985.686,672.234 976.62,665.643 983.734,657.244 
						998.938,647.941 					"/>
				</g>
				<g id="XMLID_969_">
					<polygon style="fill:#FFFFFF;" points="995.867,426.353 998.831,449.115 978.917,551.412 1000.446,652.926 984.786,657.693 
						931.402,537.479 927.858,500.505 933.202,423.694 					"/>
				</g>
			</g>
			<g id="XMLID_965_">
				<g id="XMLID_967_">
					<polygon style="fill:#FFFFFF;" points="895.786,435.116 894.487,531.472 915.643,655.71 931.911,655.71 942.185,541.075 
						964.446,426.439 					"/>
				</g>
				<g id="XMLID_966_">
					<polygon style="fill:#145566;" points="931.817,661.598 914.226,669.147 905.43,661.598 914.226,654.049 931.817,654.049 					
						"/>
				</g>
			</g>
			<g id="XMLID_964_">
				<path style="fill:#145566;" d="M1014.302,465.734c0.224,10.425-0.098,24.474-4.033,24.988c-0.737,0.096-1.444-0.275-2.089-0.633
					c-6.805-3.781-11.619-9.103-18.326-12.756c-7.03-3.829-15.072-5.863-22.959-7.288c-11.793-2.193-23.848-3.553-35.864-3.767
					c-8.577-0.152-18.572-0.48-26.98,1.333c-12.374,2.669-7.401,2.967-14.545,13.374c-3.676-1.356-7.351-2.712-11.027-4.069
					c-1.764-0.651,5.607-66.728,9.126-74.885c8.273-19.178,16.998-38.107,25.741-57.021c3.71-8.025,6.97-19.15,12.772-25.28
					c5.692-6.014,17.329-14.496,25.233-15.105c7.694-0.592,20.014,4.791,26.947,8.59c9.744,5.339,12.452,13.934,16.864,23.796
					c4.043,9.037,9.523,33.301,11.069,43.016c1.872,11.766,3.605,23.555,4.953,35.388c1.504,13.205,2.538,26.47,2.756,39.755
					C1013.966,456.646,1014.196,460.78,1014.302,465.734z"/>
			</g>
			<g id="XMLID_963_">
				<path style="fill:#3ABABA;" d="M933.165,321.297c0,0-21.366,29.912-32.049,55.552c-5.459,13.101-12.286,55.552-14.956,61.427
					c-2.671,5.876-5.151,39.574-5.151,39.574l8.499,3.136c0,0,11.074-75.293,15.882-90.249
					c4.807-14.956,12.286-26.173,13.354-38.459c1.068-12.286,17.627-30.981,17.627-30.981H933.165z"/>
			</g>
		</g>
		<g>
			<g id="XMLID_961_">
				<polygon style="fill:#B97262;" points="711.343,268.162 703.722,266.808 702.615,268.278 704.369,269.714 697.722,270.401 
					693.923,274.271 695.174,281.379 700.708,286.376 707.633,284.385 713.579,278.215 716.132,276.535 713.315,266.738 				"/>
			</g>
			<g>
				<path style="fill:#37AFAC;" d="M783.935,183.884c-3.408-3.743-23.467-15.061-23.467-15.061L765.715,239l-54.939,27.405
					l4.986,17.344l78.634-31.808L783.935,183.884z"/>
			</g>
		</g>
		<g id="XMLID_955_">
			<g id="XMLID_956_">
				<g id="XMLID_957_">
					<g id="XMLID_960_">
						<path style="fill:#FFD559;" d="M678.117,327.403v-5.279c0-8.572-7.132-15.521-15.93-15.521h-166.1
							c-8.798,0-15.93,6.949-15.93,15.521v279.88h395.92V342.925c0-8.572-7.132-15.521-15.93-15.521H678.117z"/>
					</g>
					<g id="XMLID_959_">
						<rect x="497.733" y="349.768" style="fill:#FFFFFF;" width="364.468" height="255.074"/>
					</g>
					<g id="XMLID_958_">
						<path style="fill:#EBB044;" d="M672.47,381.662l-5.877,15.877H496.086c-8.798,0-15.93,6.949-15.93,15.521v197.615
							c0,8.572,7.132,15.521,15.93,15.521h364.06c8.798,0,15.93-6.949,15.93-15.521V386.928c0-8.572-7.132-15.521-15.93-15.521
							H687.455C680.741,371.407,674.748,375.508,672.47,381.662z"/>
					</g>
				</g>
			</g>
		</g>
		<g id="XMLID_952_">
			<g id="XMLID_954_">
				<polygon style="fill:#B97262;" points="861.838,391.033 854.065,393.387 847.524,390.176 846.141,391.102 847.353,392.782 
					841.162,391.543 836.719,393.742 836.002,400.026 839.707,405.715 846.489,405.94 853.472,402.403 864.278,399.616 				"/>
			</g>
			<g id="XMLID_953_">
				<polygon style="fill:#12505E;" points="855.167,391.566 913.154,370.673 962.578,305.416 982.029,312.192 991.513,328.745 
					936.61,396.207 856.134,406.617 				"/>
			</g>
		</g>
		<g style="opacity:0.1;">
			<polygon style="fill:#2D2A27;" points="472.548,275.537 472.548,275.536 472.548,275.537 222.827,364.201 305.697,399.856 
				222.318,478.606 239.111,496.387 239.111,496.387 255.532,513.773 338.911,435.023 369.78,519.792 472.548,275.537 			"/>
		</g>
		<g id="XMLID_951_">
			<polygon style="fill:#B97262;" points="261.028,400.101 272.688,394.428 275.527,397.901 285.324,398.259 285.19,404.486 
				268.211,408.884 			"/>
		</g>
		<g id="XMLID_936_">
			<g id="XMLID_940_">
				<g id="XMLID_950_">
					<polygon style="fill:#1A3151;" points="106.86,525.393 122.767,596.054 137.391,680.129 152.181,680.129 158.228,475.565 
						109.332,476.453 					"/>
				</g>
				<g id="XMLID_948_">
					<g id="XMLID_949_">
						<polygon style="fill:#1A3151;" points="200.482,521.072 202.535,589.664 181.88,680.129 168.603,680.129 167.246,584.727 
							152.723,506.648 149.112,481.724 189.823,476.922 						"/>
					</g>
				</g>
				<g id="XMLID_947_">
					<path style="fill:#3ABABA;" d="M168.277,336.545l-46.154,3.405l-26.457,42.805c7.333,26.129,5.889,17.172,10.349,40.788
						L92.82,488.572l17.219,5.018l62.572,1.113l20.578-3.601l-5.628-62.045l2.919-82.852L168.277,336.545z"/>
				</g>
				<g id="XMLID_946_">
					<polygon style="fill:#3ABABA;" points="177.376,370.348 200.586,406.183 222.931,409.437 273.881,411.568 269.226,396.47 
						215.375,382.67 190.48,346.204 					"/>
				</g>
				<g id="XMLID_941_">
					<g id="XMLID_945_">
						<path style="fill:#B97262;" d="M165.832,296.742c-7-20.352-33.868-12.725-39.407,5.397
							c-3.613,11.821,5.516,27.161,17.765,30.556c0.054,0.465,0.094,0.9,0.096,1.269c0.008,1.897,0.242,3.768,0.523,5.664
							c0.105,0.707,10.824-1.353,12.02-1.588c0.418-0.082,0.885-0.196,1.11-0.547c0.432-0.673-0.271-2.655-0.349-3.403
							c-0.093-0.883-0.185-1.766-0.278-2.649c6.042-2.949,9.854-9.23,10.919-15.625
							C169.299,309.392,167.935,302.858,165.832,296.742z"/>
					</g>
					<g id="XMLID_942_">
						<g id="XMLID_944_">
							<path style="fill:#1A3151;" d="M146.546,277.773c-1.325,1.568-1.735,3.645-2.001,5.63c-0.159,1.185-0.28,2.408,0.058,3.544
								c1.346,4.531,5.897,3.943,9.543,5.159c4.497,1.5,8.511,4.585,11.247,8.282c4.283,5.789,3.16,13.743,2.121,20.567
								c-0.366,2.405-1.198,6.002,0.796,7.97c2.025,2,6.305,1.342,8.452,0.07c1.961-1.162,3.494-3.152,5.704-3.697
								c2.339-0.577,5.619,0.221,6.556-2.036c0.261-0.628,0.233-1.369,0.578-1.952c1.166-1.971,4.589-0.027,6.333-1.487
								c1.073-0.898,0.933-2.627,0.445-3.966c-0.488-1.339-1.239-2.677-1.078-4.089c0.139-1.214,0.93-2.225,1.38-3.354
								c0.89-2.23,0.313-5.003-1.394-6.699c-3.174-3.154-8.77-2.083-12.137-5.021c-1.754-1.53-2.567-3.868-3.345-6.08
								c-0.779-2.212-1.688-4.537-3.545-5.934c-2.294-1.727-5.374-1.169-7.665-3.249c-1.347-1.222-2.308-2.874-3.794-3.913
								c-1.959-1.37-5.652-2.258-8.003-2.854C153.064,273.718,149.055,274.806,146.546,277.773z"/>
						</g>
						<g id="XMLID_943_">
							<path style="fill:#1A3151;" d="M132.065,311.447c0.384,6.689,4.251,13.657,1.622,19.771
								c-2.653,6.17-10.312,7.828-16.886,8.64c-1.081,0.133-14.913,2.395-14.992,2.136c-1.396-4.573-2.836-9.236-5.578-13.136
								c-2.742-3.9-7.066-6.976-11.744-6.912c1.326-0.335,1.878-2.031,1.617-3.406c-0.261-1.375-1.074-2.571-1.59-3.871
								c-1.269-3.196-0.567-7.091,1.726-9.58c4.576-4.965,13.651-3.738,17.471-9.332c2.369-3.469,1.697-8.187,2.765-12.283
								c2.065-7.92,10.392-10.177,16.442-14.144c6.387-4.187,12.511-6.681,20.303-5.984c9.66,0.864,17.489,10.035,14.506,19.454
								c-3.826,12.08-22.767,12.504-25.393,24.674C132.051,308.782,131.988,310.109,132.065,311.447z"/>
						</g>
					</g>
				</g>
			</g>
			<g id="XMLID_939_">
				<polygon style="fill:#1A3151;" points="137.391,338.866 150.998,358.097 157.394,357.573 166.077,336.699 				"/>
			</g>
			<g id="XMLID_938_">
				<polygon style="fill:#145566;" points="152.181,680.129 160.061,690.265 152.723,698.289 142.431,689.209 137.391,680.129 				
					"/>
			</g>
			<g id="XMLID_937_">
				<polygon style="fill:#145566;" points="182.918,680.129 190.798,690.265 183.461,698.289 173.169,689.209 168.129,680.129 				
					"/>
			</g>
		</g>
		<g>
			<g>
				<polygon style="fill:#145566;" points="361.383,499.41 464.151,255.154 214.43,343.819 297.3,379.474 213.921,458.224 
					247.135,493.391 330.514,414.64 				"/>
			</g>
			<g style="opacity:0.1;">
				<polygon style="fill:#2D2A27;" points="230.715,476.005 247.135,493.391 330.514,414.641 361.383,499.41 464.151,255.154 				
					"/>
			</g>
		</g>
		<g id="XMLID_933_">
			<g id="XMLID_935_">
				<polygon style="fill:#B97262;" points="229.79,451.394 242.678,452.817 243.227,457.269 251.322,462.799 247.886,467.994 
					231.179,462.655 				"/>
			</g>
			<g id="XMLID_934_">
				<polygon style="fill:#37AFAC;" points="95.666,382.755 142.328,431.871 163.452,439.849 232.186,464.482 230.883,448.737 
					161.823,412.083 122.117,339.774 103.894,349.796 				"/>
			</g>
		</g>
		<g id="XMLID_930_">
			<g id="XMLID_932_">
				<path style="fill:#B97262;" d="M949.781,309.328c3.799-0.239,12.789-2.325,12.797-1.971c-0.085-3.436-0.445-6.866-1.075-10.244
					c3.526-1.388,7.585-3.423,8.07-7.182c0.153-1.184-0.095-2.379-0.341-3.546c-1.019-4.828-2.037-9.656-3.056-14.484
					c-0.352-1.67-0.725-3.388-1.692-4.794c-1.697-2.467-4.849-3.458-7.817-3.861c-11.004-1.496-21.036,6.214-30.662,10.369
					c-0.802,0.346-1.634,0.714-2.197,1.381c-0.979,1.159-0.879,2.857-0.671,4.359c1.081,7.787,3.241,19.172,12.295,21.335
					c1.977,0.473,4.052,0.434,6.022,0.942c4.749,1.225,3.336,5.778,6.8,7.593C948.494,309.351,949.039,309.375,949.781,309.328z"/>
			</g>
			<g id="XMLID_931_">
				<path style="fill:#1A3151;" d="M904.607,262.235c-1.096-3.88-1.526-7.788-1.167-10.894c0.84-7.273,5.806-19.827,15.249-14.698
					c5.193,2.822,9.128,5.655,15.484,4.586c7.25-1.22,11.216-2.93,18.667-0.578c6.515,2.058,15.168,2.281,21.109,5.306
					c2.481,1.263,4.498,3.306,6.096,5.585c5.536,7.898,5.976,19.052,1.079,27.36c-1.099,1.864-2.432,3.58-3.84,5.224
					c-2.913,3.402-6.392,7.6-10.521,8.973c-0.237-3.73,2.73-15.628-0.25-18.583c-4.729-4.688-14.955-2.615-20.556-1.212
					c-6.109,1.531-11.437,6.094-17.507,7.25c-4.368,0.832-10.053-1.115-13.873-3.248
					C909.87,274.679,906.373,268.493,904.607,262.235z"/>
			</g>
		</g>
	</g>
</g>
</svg>
